<svg width="48" height="48" viewBox="0 0 48 48" fill="none" xmlns="http://www.w3.org/2000/svg">
<rect x="1.5" y="6.5" width="45" height="17" rx="1.5" stroke="#152C5B" stroke-width="3"/>
<path d="M7.62342 44.9973L8.09222 44.142C10.7056 39.3745 10.5346 33.566 7.6453 28.9605L7.04278 28" stroke="#152C5B" stroke-width="3" stroke-linecap="round" stroke-linejoin="round"/>
<path d="M13.6234 44.9973L14.0922 44.142C16.7056 39.3745 16.5346 33.566 13.6453 28.9605L13.0428 28" stroke="#152C5B" stroke-width="3" stroke-linecap="round" stroke-linejoin="round"/>
<path d="M32.398 27.602L31.9292 28.4573C29.3158 33.2248 29.4868 39.0333 32.3761 43.6388L32.9786 44.5993" stroke="#152C5B" stroke-width="3" stroke-linecap="round" stroke-linejoin="round"/>
<path d="M45.8811 18L3.00001 18" stroke="#152C5B" stroke-width="3" stroke-linecap="round"/>
<path d="M29.5 12L18 12" stroke="#FF498B" stroke-width="3" stroke-linecap="round"/>
<path d="M38.398 27.602L37.9292 28.4573C35.3158 33.2248 35.4868 39.0333 38.3761 43.6388L38.9786 44.5993" stroke="#152C5B" stroke-width="3" stroke-linecap="round" stroke-linejoin="round"/>
</svg>
