<svg width="48" height="48" viewBox="0 0 48 48" fill="none" xmlns="http://www.w3.org/2000/svg">
<path d="M11.5 15C11.5 13.6193 12.6193 12.5 14 12.5H18C19.3807 12.5 20.5 13.6193 20.5 15V21.5H11.5V15Z" stroke="#FF498B" stroke-width="3"/>
<path d="M26.5 15C26.5 13.6193 27.6193 12.5 29 12.5H33C34.3807 12.5 35.5 13.6193 35.5 15V21.5H26.5V15Z" stroke="#FF498B" stroke-width="3"/>
<path d="M7.5 11C7.5 6.30558 11.3056 2.5 16 2.5H31C35.6944 2.5 39.5 6.30558 39.5 11V21.5H7.5V11Z" stroke="#152C5B" stroke-width="3"/>
<mask id="path-4-inside-1_33_37" fill="white">
<path d="M0 24C0 21.7909 1.79086 20 4 20H44C46.2091 20 48 21.7909 48 24V34C48 35.1046 47.1046 36 46 36H2C0.895431 36 0 35.1046 0 34V24Z"/>
</mask>
<path d="M0 24C0 21.7909 1.79086 20 4 20H44C46.2091 20 48 21.7909 48 24V34C48 35.1046 47.1046 36 46 36H2C0.895431 36 0 35.1046 0 34V24Z" stroke="#152C5B" stroke-width="6" mask="url(#path-4-inside-1_33_37)"/>
<path d="M42 44V35" stroke="#152C5B" stroke-width="3" stroke-linecap="round"/>
<path d="M6 44L6 35" stroke="#152C5B" stroke-width="3" stroke-linecap="round"/>
<path d="M42 40L7 40" stroke="#152C5B" stroke-width="3" stroke-linecap="round"/>
</svg>
