<svg width="48" height="48" viewBox="0 0 48 48" fill="none" xmlns="http://www.w3.org/2000/svg">
<path d="M14.2574 18L14.2574 12" stroke="#152C5B" stroke-width="3" stroke-linecap="round"/>
<path d="M31.3663 18L31.3663 12" stroke="#152C5B" stroke-width="3" stroke-linecap="round"/>
<path d="M11.0049 4.02L11.005 4.00018C11.005 3.99855 11.005 3.99746 11.005 3.99678C11.005 3.99599 11.005 3.99575 11.005 3.99586C11.0072 3.72294 11.2279 3.50225 11.5008 3.50002C11.5008 3.50002 11.5008 3.50002 11.5008 3.50002C11.5011 3.50002 11.5023 3.50001 11.5051 3.50001L11.5249 3.5H16.9899L17.0097 3.50001C17.0138 3.50001 17.0145 3.50002 17.0138 3.50002C17.2869 3.50216 17.5077 3.72295 17.5099 3.99597C17.5099 3.9963 17.5099 3.99751 17.5099 4.00019L17.5099 4.02V8.24753C17.5099 10.0438 16.0537 11.5 14.2574 11.5C12.4611 11.5 11.0049 10.0438 11.0049 8.24753V4.02Z" stroke="#FF498B" stroke-width="3"/>
<path d="M28.1139 4.02L28.1139 4.00018C28.1139 3.99855 28.1139 3.99746 28.1139 3.99678C28.1139 3.99599 28.1139 3.99575 28.1139 3.99586C28.1161 3.72294 28.3368 3.50225 28.6098 3.50002C28.6098 3.50002 28.6098 3.50002 28.6098 3.50002C28.6101 3.50002 28.6113 3.50001 28.614 3.50001L28.6339 3.5H34.0988L34.1186 3.50001C34.1228 3.50001 34.1234 3.50002 34.1227 3.50002C34.3958 3.50216 34.6166 3.72295 34.6188 3.99597C34.6188 3.9963 34.6188 3.99751 34.6188 4.00019L34.6188 4.02V8.24753C34.6188 10.0438 33.1626 11.5 31.3663 11.5C29.57 11.5 28.1139 10.0438 28.1139 8.24753V4.02Z" stroke="#FF498B" stroke-width="3"/>
<path d="M5.30199 28.5H10.8564V42.7228C10.8564 44.2566 9.61304 45.5 8.07921 45.5C6.54539 45.5 5.30199 44.2566 5.30199 42.7228V28.5Z" stroke="#152C5B" stroke-width="3"/>
<path d="M36.4645 18.5C37.2621 18.5 38.0119 18.8806 38.4826 19.5245L42.1384 24.5244C43.346 26.1762 42.1664 28.5 40.1203 28.5L4.52029 28.5C3.37717 28.5 2.4505 27.5733 2.4505 26.4302C2.4505 26.0765 2.54111 25.7288 2.7137 25.4201L5.86719 19.78C6.30908 18.9896 7.14379 18.5 8.04928 18.5L36.4645 18.5Z" stroke="#152C5B" stroke-width="3"/>
<path d="M34.7673 28.5H40.3218V42.7228C40.3218 44.2566 39.0784 45.5 37.5446 45.5C36.0107 45.5 34.7673 44.2566 34.7673 42.7228V28.5Z" stroke="#152C5B" stroke-width="3"/>
</svg>
