<svg width="48" height="48" viewBox="0 0 48 48" fill="none" xmlns="http://www.w3.org/2000/svg">
<path d="M1.5 2C1.5 1.72386 1.72386 1.5 2 1.5H9C9.27614 1.5 9.5 1.72386 9.5 2V46C9.5 46.2761 9.27614 46.5 9 46.5H5.5H2C1.72386 46.5 1.5 46.2761 1.5 46V2Z" stroke="#152C5B" stroke-width="3"/>
<path d="M26.0254 29.868L26 18" stroke="#FF498B" stroke-width="3" stroke-linecap="round"/>
<path d="M9.5 2C9.5 1.72386 9.72386 1.5 10 1.5H30C30.2761 1.5 30.5 1.72386 30.5 2V46C30.5 46.2761 30.2761 46.5 30 46.5H20H10C9.72386 46.5 9.5 46.2761 9.5 46V2Z" stroke="#152C5B" stroke-width="3"/>
</svg>
