<svg width="46" height="46" viewBox="0 0 46 46" fill="none" xmlns="http://www.w3.org/2000/svg">
<g clip-path="url(#clip0_104_100)">
<rect width="46" height="46" fill="white"/>
<path d="M15.6948 7.92705C15.9941 7.00574 17.2975 7.00574 17.5969 7.92705L20.8321 17.884C20.966 18.296 21.3499 18.5749 21.7831 18.5749H32.2524C33.2212 18.5749 33.6239 19.8146 32.8402 20.384L24.3704 26.5377C24.0199 26.7923 23.8732 27.2437 24.0071 27.6557L27.2423 37.6126C27.5417 38.5339 26.4872 39.3 25.7035 38.7306L17.2336 32.5769C16.8831 32.3223 16.4085 32.3223 16.058 32.5769L7.5882 38.7306C6.80449 39.3 5.75001 38.5339 6.04936 37.6126L9.28455 27.6557C9.41843 27.2437 9.27177 26.7923 8.92128 26.5377L0.451435 20.384C-0.332278 19.8146 0.0704968 18.5749 1.03922 18.5749H11.5085C11.9418 18.5749 12.3257 18.296 12.4596 17.884L15.6948 7.92705Z" fill="#E5E5E5"/>
</g>
<defs>
<clipPath id="clip0_104_100">
<rect width="46" height="46" fill="white"/>
</clipPath>
</defs>
</svg>
