<svg width="48" height="48" viewBox="0 0 48 48" fill="none" xmlns="http://www.w3.org/2000/svg">
<mask id="path-1-inside-1_13_40" fill="white">
<path fill-rule="evenodd" clip-rule="evenodd" d="M19.2848 5C18.5021 5 17.7913 5.45661 17.4658 6.16848L15.5 10.4688H8C3.58172 10.4688 0 14.0505 0 18.4688V32C0 36.4183 3.58172 40 8 40H40C44.4183 40 48 36.4183 48 32V18.4688C48 14.0505 44.4183 10.4688 40 10.4688H32.5L30.5342 6.16848C30.2087 5.45661 29.4979 5 28.7152 5H19.2848Z"/>
</mask>
<path d="M17.4658 6.16848L14.7374 4.9212L14.7374 4.9212L17.4658 6.16848ZM15.5 10.4688V13.4688H17.4272L18.2284 11.716L15.5 10.4688ZM32.5 10.4688L29.7716 11.716L30.5728 13.4688H32.5V10.4688ZM30.5342 6.16848L33.2626 4.9212V4.9212L30.5342 6.16848ZM20.1943 7.41576C20.0315 7.7717 19.6761 8 19.2848 8V2C17.328 2 15.551 3.14152 14.7374 4.9212L20.1943 7.41576ZM18.2284 11.716L20.1943 7.41576L14.7374 4.9212L12.7716 9.22147L18.2284 11.716ZM8 13.4688H15.5V7.46875H8V13.4688ZM3 18.4688C3 15.7073 5.23858 13.4688 8 13.4688V7.46875C1.92487 7.46875 -3 12.3936 -3 18.4688H3ZM3 32V18.4688H-3V32H3ZM8 37C5.23858 37 3 34.7614 3 32H-3C-3 38.0751 1.92487 43 8 43V37ZM40 37H8V43H40V37ZM45 32C45 34.7614 42.7614 37 40 37V43C46.0751 43 51 38.0751 51 32H45ZM45 18.4688V32H51V18.4688H45ZM40 13.4688C42.7614 13.4688 45 15.7073 45 18.4688H51C51 12.3936 46.0751 7.46875 40 7.46875V13.4688ZM32.5 13.4688H40V7.46875H32.5V13.4688ZM27.8057 7.41576L29.7716 11.716L35.2284 9.22147L33.2626 4.9212L27.8057 7.41576ZM28.7152 8C28.3238 8 27.9685 7.77169 27.8057 7.41576L33.2626 4.9212C32.449 3.14152 30.672 2 28.7152 2V8ZM19.2848 8H28.7152V2H19.2848V8Z" fill="#152C5B" mask="url(#path-1-inside-1_13_40)"/>
<circle cx="24" cy="24" r="6.5" stroke="#FF498B" stroke-width="3"/>
<path d="M34 18H41" stroke="#152C5B" stroke-width="2" stroke-linecap="round"/>
</svg>
