<svg width="48" height="48" viewBox="0 0 48 48" fill="none" xmlns="http://www.w3.org/2000/svg">
<path d="M6 16.9137C8.32801 10.5975 15.4597 6 23.8965 6C32.601 6 39.9163 10.8938 42 17.52" stroke="#152C5B" stroke-width="3" stroke-linecap="round"/>
<path d="M10 21.8147C11.8107 16.5512 17.3576 12.72 23.9195 12.72C30.6896 12.72 36.3793 16.7982 38 22.32" stroke="#152C5B" stroke-width="3" stroke-linecap="round"/>
<path d="M14 26.7158C15.2933 22.505 19.2554 19.44 23.9425 19.44C28.7783 19.44 32.8424 22.7026 34 27.12" stroke="#152C5B" stroke-width="3" stroke-linecap="round"/>
<path d="M28.5 35.28C28.5 37.8407 26.3197 40.02 23.5 40.02C20.6803 40.02 18.5 37.8407 18.5 35.28C18.5 32.7193 20.6803 30.54 23.5 30.54C26.3197 30.54 28.5 32.7193 28.5 35.28Z" stroke="#FF498B" stroke-width="3"/>
</svg>
