<svg width="23" height="22" viewBox="0 0 23 22" fill="none" xmlns="http://www.w3.org/2000/svg">
<path d="M1 4C1 3.44772 1.44772 3 2 3H21C21.5523 3 22 3.44772 22 4V20C22 20.5523 21.5523 21 21 21H2C1.44771 21 1 20.5523 1 20V4Z" stroke="white" stroke-width="2"/>
<path d="M6 13C6 12.4477 6.44772 12 7 12H9C9.55228 12 10 12.4477 10 13V15C10 15.5523 9.55228 16 9 16H7C6.44772 16 6 15.5523 6 15V13Z" stroke="white" stroke-width="2"/>
<path d="M13 13C13 12.4477 13.4477 12 14 12H16C16.5523 12 17 12.4477 17 13V15C17 15.5523 16.5523 16 16 16H14C13.4477 16 13 15.5523 13 15V13Z" stroke="white" stroke-width="2"/>
<path d="M0.5 6.5H22.5" stroke="white" stroke-width="2"/>
<path d="M5 4V1" stroke="white" stroke-width="2" stroke-linecap="round"/>
<path d="M18 4V1" stroke="white" stroke-width="2" stroke-linecap="round"/>
</svg>
