<svg width="48" height="48" viewBox="0 0 48 48" fill="none" xmlns="http://www.w3.org/2000/svg">
<path d="M31.5 40C31.5 40.2268 31.3783 40.6368 30.7255 41.198C30.0775 41.7551 29.0521 42.3248 27.6546 42.833C24.872 43.8448 20.9285 44.5 16.5 44.5C12.0715 44.5 8.12797 43.8448 5.34535 42.833C3.94787 42.3248 2.9225 41.7551 2.27454 41.198C1.6217 40.6368 1.5 40.2268 1.5 40C1.5 39.7732 1.6217 39.3632 2.27454 38.802C2.9225 38.2449 3.94787 37.6752 5.34535 37.167C8.12797 36.1552 12.0715 35.5 16.5 35.5C20.9285 35.5 24.872 36.1552 27.6546 37.167C29.0521 37.6752 30.0775 38.2449 30.7255 38.802C31.3783 39.3632 31.5 39.7732 31.5 40Z" stroke="#152C5B" stroke-width="3"/>
<path d="M28.5 12.6875C28.5 15.9411 27.0517 23.0791 24.6431 29.4403C23.444 32.6072 22.0465 35.4728 20.5456 37.5178C18.9883 39.6396 17.6037 40.5 16.5 40.5C15.3963 40.5 14.0117 39.6396 12.4544 37.5178C10.9535 35.4728 9.55597 32.6072 8.35687 29.4403C5.94833 23.0791 4.5 15.9411 4.5 12.6875C4.5 6.59517 9.78351 1.5 16.5 1.5C23.2165 1.5 28.5 6.59517 28.5 12.6875Z" stroke="#152C5B" stroke-width="3"/>
<circle cx="16.5" cy="14.5" r="5" stroke="#FF498B" stroke-width="3"/>
</svg>
