<svg width="35" height="35" viewBox="0 0 35 35" fill="none" xmlns="http://www.w3.org/2000/svg">
<path d="M16.5489 2.92705C16.8483 2.00574 18.1517 2.00574 18.4511 2.92705L21.2045 11.4012C21.3384 11.8132 21.7223 12.0922 22.1555 12.0922L31.0658 12.0922C32.0345 12.0922 32.4373 13.3318 31.6536 13.9012L24.445 19.1385C24.0945 19.3932 23.9479 19.8446 24.0818 20.2566L26.8352 28.7308C27.1345 29.6521 26.0801 30.4182 25.2963 29.8488L18.0878 24.6115C17.7373 24.3568 17.2627 24.3568 16.9122 24.6115L9.70365 29.8488C8.91994 30.4182 7.86546 29.6521 8.16481 28.7307L10.9182 20.2566C11.0521 19.8446 10.9055 19.3932 10.555 19.1385L3.34641 13.9012C2.56269 13.3318 2.96547 12.0922 3.93419 12.0922L12.8445 12.0922C13.2777 12.0922 13.6616 11.8132 13.7955 11.4012L16.5489 2.92705Z" fill="#F1E800"/>
</svg>
